# xmcd
#
# Track frame offsets:
#	182
#	12927
#	25350
#	37070
#	48445
#	61610
#	73530
#	85180
#	95872
#	108927
#	119385
#	129190
#	142832
#	156210
#	166085
#	178420
#	189590
#	201847
#	214762
#	224902
#
# Disc length: 3182 seconds
#
# Revision: 1
# Processed by: cddbd v1.4b41PL2 Copyright (c) Steve Scherf et al.
# Submitted via: audiograbber 1.80
#
DISCID=230c6c14
DTITLE=Jimmy McCracklin - On Chess
DYEAR=1900
DGENRE=
TTITLE0=The Walk
TTITLE1=I'm to Blame
TTITLE2=Minnie Lee
TTITLE3=Take Care of Yourself
TTITLE4=Suffer
TTITLE5=Get Tough
TTITLE6=Later On
TTITLE7=Everybody Rock
TTITLE8=Come On
TTITLE9=I Know
TTITLE10=Country Baby
TTITLE11=He Knows the Rules
TTITLE12=The Wobble
TTITLE13=I'm Through
TTITLE14=Hurt Me
TTITLE15=Old Memories
TTITLE16=Claim On You
TTITLE17=I'll Take the Blame
TTITLE18=One Track Love
TTITLE19=Trottin'
EXTD=Vogue VG651 600165
EXTT0=
EXTT1=
EXTT2=
EXTT3=
EXTT4=
EXTT5=
EXTT6=
EXTT7=
EXTT8=
EXTT9=
EXTT10=
EXTT11=
EXTT12=
EXTT13=
EXTT14=
EXTT15=
EXTT16=
EXTT17=
EXTT18=
EXTT19=
PLAYORDER=
